<svg width="321" height="269" viewBox="0 0 321 269" fill="none" xmlns="http://www.w3.org/2000/svg">
<mask id="path-1-outside-1_5_23" maskUnits="userSpaceOnUse" x="0" y="-1.14441e-05" width="321" height="269" fill="black">
<rect fill="white" y="-1.14441e-05" width="321" height="269"/>
<path fill-rule="evenodd" clip-rule="evenodd" d="M141.933 16.084C132.838 22.5246 123.081 29.3666 120.248 31.2962L115.096 34.8007L115.091 58.581C115.091 71.6602 115.346 82.3614 115.659 82.3614C115.976 82.3614 125.462 75.827 136.745 67.8429C148.032 59.8587 157.831 53.3243 158.518 53.3243C159.211 53.3243 169.311 60.083 180.969 68.3435C192.621 76.6041 202.372 83.3627 202.633 83.3627C202.888 83.3627 203.102 72.5781 203.102 59.3946V35.4265L181.849 20.5429C170.16 12.3553 160.117 5.37243 159.534 5.01781C158.95 4.66319 151.033 9.64351 141.933 16.084ZM230.027 29.2154C223.698 35.5568 227.714 45.3141 236.653 45.3141C240.236 45.3141 241.367 44.7926 243.622 42.1069C245.878 39.4264 246.227 38.2426 245.774 34.8528C244.664 26.5714 235.83 23.4111 230.027 29.2154ZM73.7994 29.3041C66.9548 34.6964 71.247 46.3154 80.0866 46.3154C85.9311 46.3154 91.0203 40.1565 89.6607 34.7329C87.9418 27.8699 79.3522 24.9339 73.7994 29.3041ZM32.7371 42.1382C30.565 44.5423 30.6379 47.6035 32.909 49.6634C34.3415 50.9619 36.8001 51.3218 44.2125 51.3218C54.7502 51.3218 56.0837 50.6855 56.0837 45.6478C56.0837 41.1786 53.9949 40.3077 43.3009 40.3077C35.9406 40.3077 34.1018 40.6258 32.7371 42.1382ZM7.86426 43.6505C6.86413 48.8707 9.85408 52.0988 14.5786 50.9098C16.782 50.357 17.0789 49.7468 17.0789 45.7939V41.309H12.693C8.89042 41.309 8.24972 41.6219 7.86426 43.6505ZM88.0876 54.6959L79.5866 60.8339L45.5824 61.8352L45.2595 65.7986C44.7907 71.5507 46.4211 72.3486 58.6674 72.3486C69.8458 72.3486 70.101 72.4894 70.0698 78.6901C70.049 83.5922 69.0436 84.3275 61.699 84.8073C57.9746 85.0524 54.2866 85.7825 53.5053 86.4291C52.6354 87.154 52.0832 89.4851 52.0832 92.4159C52.0832 100.218 51.8957 100.384 43.1967 100.384C32.4975 100.384 28.8564 103.367 32.1172 109.464C33.0809 111.263 34.3727 111.399 50.5466 111.399C65.0275 111.399 68.205 111.659 69.5124 112.973C71.3147 114.778 71.5596 118.653 70.049 121.479C69.1009 123.252 67.8299 123.414 54.62 123.414C42.8685 123.414 39.9359 123.701 38.6545 124.989C35.0863 128.561 38.0815 134.428 43.478 134.428C47.5514 134.428 49.8434 136.05 50.5882 139.466C51.6248 144.185 49.1974 147.059 43.6499 147.684C38.0555 148.315 36.0813 149.833 36.0813 153.504C36.0813 158.991 37.6075 159.46 55.5003 159.46C69.9969 159.46 71.9554 159.658 73.4296 161.29C74.3412 162.297 75.086 164.258 75.086 165.64C75.086 169.426 72.1534 171.475 66.7569 171.475H62.0844V196.231L71.3356 202.697C89.8326 215.625 142.803 252.991 150.83 258.774C156.372 262.769 159.523 264.443 160.456 263.901C164.055 261.809 192.069 240.986 192.085 240.391C192.106 239.594 151.387 209.988 121.008 188.711C109.137 180.393 98.9014 172.962 98.2659 172.19C97.4169 171.168 97.0366 154.255 96.8491 109.678L96.5887 48.563L88.0876 54.6959ZM220.104 72.2026V96.1916L236.168 107.55L254.17 120.28C256.072 121.63 256.108 121.208 256.108 97.1042V72.5572L238.106 60.3906L220.104 48.2188V72.2026ZM18.501 62.6852C18.1936 63.4883 18.0843 65.6526 18.2614 67.4987C18.5687 70.7528 18.7041 70.8467 23.0797 70.8467H27.5802V61.8352L23.3193 61.5275C20.2929 61.3085 18.8969 61.6422 18.501 62.6852ZM130.843 93.4954L114.091 105.511V163.376L123.842 170.26C129.207 174.051 137.083 179.491 141.344 182.354L149.095 187.558V134.459C149.095 105.255 148.757 81.3862 148.345 81.4175C147.933 81.4488 140.058 86.8828 130.843 93.4954ZM167.097 134.428C167.097 163.616 167.462 187.496 167.905 187.496C169.452 187.496 244.138 135.565 244.065 134.532C244.044 134.198 238.981 130.47 232.814 126.24C226.646 122.016 209.712 110.189 195.179 99.9568C180.646 89.7302 168.384 81.3601 167.926 81.3601C167.472 81.3601 167.097 105.24 167.097 134.428ZM280.346 99.9516C267.141 111.289 267.136 111.289 272.308 116.129L274.689 118.361L283.57 111.372C288.456 107.534 292.858 104.39 293.342 104.39C293.832 104.39 297.743 107.065 302.036 110.335L309.839 116.285L313.089 112.927C314.876 111.08 316.178 109.104 315.98 108.53C315.418 106.924 295.004 89.3652 293.738 89.4017C293.118 89.4173 287.091 94.163 280.346 99.9516ZM5.74421 102.053C4.35341 103.446 5.05662 110.173 6.66098 110.788C12.3127 112.963 16.6153 109.057 14.2609 103.889C13.3753 101.944 12.3752 101.386 9.76553 101.386C7.92155 101.386 6.10883 101.688 5.74421 102.053ZM251.108 149.864C248.633 151.669 231.011 164.258 211.952 177.838C192.892 191.423 176.291 203.349 175.067 204.34L172.838 206.145L176.718 209.185C181.995 213.315 205.737 229.549 206.503 229.549C207.118 229.549 225.698 216.256 246.357 201.039L257.108 193.118V169.78C257.108 156.946 256.77 146.475 256.358 146.516C255.947 146.558 253.582 148.06 251.108 149.864ZM14.6515 150.021C12.6878 151.987 12.6148 155.825 14.5161 157.405C15.3027 158.057 17.4383 158.453 19.2667 158.276C22.2098 157.995 22.6161 157.588 22.8973 154.641C23.0745 152.811 22.6786 150.673 22.0274 149.885C20.4491 147.982 16.6153 148.055 14.6515 150.021ZM30.6691 180.565C27.0489 184.873 27.1739 189.743 31.0025 193.582C33.1694 195.746 34.878 196.507 37.5814 196.507C40.2849 196.507 41.9934 195.746 44.1604 193.582C47.989 189.743 48.114 184.873 44.4937 180.565C42.3372 177.999 41.1808 177.483 37.5814 177.483C33.982 177.483 32.8256 177.999 30.6691 180.565ZM63.2252 227.547C58.6726 231.401 54.4845 234.556 53.9116 234.556C53.3438 234.556 49.7183 231.828 45.8533 228.491L38.8316 222.426L36.4563 224.658C35.1488 225.889 34.081 227.244 34.081 227.672C34.081 229.868 52.6979 245.799 54.7606 245.372C56.5942 244.991 75.758 228.527 76.5445 226.655C77.2582 224.96 74.5287 220.538 72.768 220.538C72.07 220.538 67.7778 223.693 63.2252 227.547Z"/>
</mask>
<path fill-rule="evenodd" clip-rule="evenodd" d="M141.933 16.084C132.838 22.5246 123.081 29.3666 120.248 31.2962L115.096 34.8007L115.091 58.581C115.091 71.6602 115.346 82.3614 115.659 82.3614C115.976 82.3614 125.462 75.827 136.745 67.8429C148.032 59.8587 157.831 53.3243 158.518 53.3243C159.211 53.3243 169.311 60.083 180.969 68.3435C192.621 76.6041 202.372 83.3627 202.633 83.3627C202.888 83.3627 203.102 72.5781 203.102 59.3946V35.4265L181.849 20.5429C170.16 12.3553 160.117 5.37243 159.534 5.01781C158.95 4.66319 151.033 9.64351 141.933 16.084ZM230.027 29.2154C223.698 35.5568 227.714 45.3141 236.653 45.3141C240.236 45.3141 241.367 44.7926 243.622 42.1069C245.878 39.4264 246.227 38.2426 245.774 34.8528C244.664 26.5714 235.83 23.4111 230.027 29.2154ZM73.7994 29.3041C66.9548 34.6964 71.247 46.3154 80.0866 46.3154C85.9311 46.3154 91.0203 40.1565 89.6607 34.7329C87.9418 27.8699 79.3522 24.9339 73.7994 29.3041ZM32.7371 42.1382C30.565 44.5423 30.6379 47.6035 32.909 49.6634C34.3415 50.9619 36.8001 51.3218 44.2125 51.3218C54.7502 51.3218 56.0837 50.6855 56.0837 45.6478C56.0837 41.1786 53.9949 40.3077 43.3009 40.3077C35.9406 40.3077 34.1018 40.6258 32.7371 42.1382ZM7.86426 43.6505C6.86413 48.8707 9.85408 52.0988 14.5786 50.9098C16.782 50.357 17.0789 49.7468 17.0789 45.7939V41.309H12.693C8.89042 41.309 8.24972 41.6219 7.86426 43.6505ZM88.0876 54.6959L79.5866 60.8339L45.5824 61.8352L45.2595 65.7986C44.7907 71.5507 46.4211 72.3486 58.6674 72.3486C69.8458 72.3486 70.101 72.4894 70.0698 78.6901C70.049 83.5922 69.0436 84.3275 61.699 84.8073C57.9746 85.0524 54.2866 85.7825 53.5053 86.4291C52.6354 87.154 52.0832 89.4851 52.0832 92.4159C52.0832 100.218 51.8957 100.384 43.1967 100.384C32.4975 100.384 28.8564 103.367 32.1172 109.464C33.0809 111.263 34.3727 111.399 50.5466 111.399C65.0275 111.399 68.205 111.659 69.5124 112.973C71.3147 114.778 71.5596 118.653 70.049 121.479C69.1009 123.252 67.8299 123.414 54.62 123.414C42.8685 123.414 39.9359 123.701 38.6545 124.989C35.0863 128.561 38.0815 134.428 43.478 134.428C47.5514 134.428 49.8434 136.05 50.5882 139.466C51.6248 144.185 49.1974 147.059 43.6499 147.684C38.0555 148.315 36.0813 149.833 36.0813 153.504C36.0813 158.991 37.6075 159.46 55.5003 159.46C69.9969 159.46 71.9554 159.658 73.4296 161.29C74.3412 162.297 75.086 164.258 75.086 165.64C75.086 169.426 72.1534 171.475 66.7569 171.475H62.0844V196.231L71.3356 202.697C89.8326 215.625 142.803 252.991 150.83 258.774C156.372 262.769 159.523 264.443 160.456 263.901C164.055 261.809 192.069 240.986 192.085 240.391C192.106 239.594 151.387 209.988 121.008 188.711C109.137 180.393 98.9014 172.962 98.2659 172.19C97.4169 171.168 97.0366 154.255 96.8491 109.678L96.5887 48.563L88.0876 54.6959ZM220.104 72.2026V96.1916L236.168 107.55L254.17 120.28C256.072 121.63 256.108 121.208 256.108 97.1042V72.5572L238.106 60.3906L220.104 48.2188V72.2026ZM18.501 62.6852C18.1936 63.4883 18.0843 65.6526 18.2614 67.4987C18.5687 70.7528 18.7041 70.8467 23.0797 70.8467H27.5802V61.8352L23.3193 61.5275C20.2929 61.3085 18.8969 61.6422 18.501 62.6852ZM130.843 93.4954L114.091 105.511V163.376L123.842 170.26C129.207 174.051 137.083 179.491 141.344 182.354L149.095 187.558V134.459C149.095 105.255 148.757 81.3862 148.345 81.4175C147.933 81.4488 140.058 86.8828 130.843 93.4954ZM167.097 134.428C167.097 163.616 167.462 187.496 167.905 187.496C169.452 187.496 244.138 135.565 244.065 134.532C244.044 134.198 238.981 130.47 232.814 126.24C226.646 122.016 209.712 110.189 195.179 99.9568C180.646 89.7302 168.384 81.3601 167.926 81.3601C167.472 81.3601 167.097 105.24 167.097 134.428ZM280.346 99.9516C267.141 111.289 267.136 111.289 272.308 116.129L274.689 118.361L283.57 111.372C288.456 107.534 292.858 104.39 293.342 104.39C293.832 104.39 297.743 107.065 302.036 110.335L309.839 116.285L313.089 112.927C314.876 111.08 316.178 109.104 315.98 108.53C315.418 106.924 295.004 89.3652 293.738 89.4017C293.118 89.4173 287.091 94.163 280.346 99.9516ZM5.74421 102.053C4.35341 103.446 5.05662 110.173 6.66098 110.788C12.3127 112.963 16.6153 109.057 14.2609 103.889C13.3753 101.944 12.3752 101.386 9.76553 101.386C7.92155 101.386 6.10883 101.688 5.74421 102.053ZM251.108 149.864C248.633 151.669 231.011 164.258 211.952 177.838C192.892 191.423 176.291 203.349 175.067 204.34L172.838 206.145L176.718 209.185C181.995 213.315 205.737 229.549 206.503 229.549C207.118 229.549 225.698 216.256 246.357 201.039L257.108 193.118V169.78C257.108 156.946 256.77 146.475 256.358 146.516C255.947 146.558 253.582 148.06 251.108 149.864ZM14.6515 150.021C12.6878 151.987 12.6148 155.825 14.5161 157.405C15.3027 158.057 17.4383 158.453 19.2667 158.276C22.2098 157.995 22.6161 157.588 22.8973 154.641C23.0745 152.811 22.6786 150.673 22.0274 149.885C20.4491 147.982 16.6153 148.055 14.6515 150.021ZM30.6691 180.565C27.0489 184.873 27.1739 189.743 31.0025 193.582C33.1694 195.746 34.878 196.507 37.5814 196.507C40.2849 196.507 41.9934 195.746 44.1604 193.582C47.989 189.743 48.114 184.873 44.4937 180.565C42.3372 177.999 41.1808 177.483 37.5814 177.483C33.982 177.483 32.8256 177.999 30.6691 180.565ZM63.2252 227.547C58.6726 231.401 54.4845 234.556 53.9116 234.556C53.3438 234.556 49.7183 231.828 45.8533 228.491L38.8316 222.426L36.4563 224.658C35.1488 225.889 34.081 227.244 34.081 227.672C34.081 229.868 52.6979 245.799 54.7606 245.372C56.5942 244.991 75.758 228.527 76.5445 226.655C77.2582 224.96 74.5287 220.538 72.768 220.538C72.07 220.538 67.7778 223.693 63.2252 227.547Z" fill="url(#paint0_linear_5_23)"/>
<path fill-rule="evenodd" clip-rule="evenodd" d="M141.933 16.084C132.838 22.5246 123.081 29.3666 120.248 31.2962L115.096 34.8007L115.091 58.581C115.091 71.6602 115.346 82.3614 115.659 82.3614C115.976 82.3614 125.462 75.827 136.745 67.8429C148.032 59.8587 157.831 53.3243 158.518 53.3243C159.211 53.3243 169.311 60.083 180.969 68.3435C192.621 76.6041 202.372 83.3627 202.633 83.3627C202.888 83.3627 203.102 72.5781 203.102 59.3946V35.4265L181.849 20.5429C170.16 12.3553 160.117 5.37243 159.534 5.01781C158.95 4.66319 151.033 9.64351 141.933 16.084ZM230.027 29.2154C223.698 35.5568 227.714 45.3141 236.653 45.3141C240.236 45.3141 241.367 44.7926 243.622 42.1069C245.878 39.4264 246.227 38.2426 245.774 34.8528C244.664 26.5714 235.83 23.4111 230.027 29.2154ZM73.7994 29.3041C66.9548 34.6964 71.247 46.3154 80.0866 46.3154C85.9311 46.3154 91.0203 40.1565 89.6607 34.7329C87.9418 27.8699 79.3522 24.9339 73.7994 29.3041ZM32.7371 42.1382C30.565 44.5423 30.6379 47.6035 32.909 49.6634C34.3415 50.9619 36.8001 51.3218 44.2125 51.3218C54.7502 51.3218 56.0837 50.6855 56.0837 45.6478C56.0837 41.1786 53.9949 40.3077 43.3009 40.3077C35.9406 40.3077 34.1018 40.6258 32.7371 42.1382ZM7.86426 43.6505C6.86413 48.8707 9.85408 52.0988 14.5786 50.9098C16.782 50.357 17.0789 49.7468 17.0789 45.7939V41.309H12.693C8.89042 41.309 8.24972 41.6219 7.86426 43.6505ZM88.0876 54.6959L79.5866 60.8339L45.5824 61.8352L45.2595 65.7986C44.7907 71.5507 46.4211 72.3486 58.6674 72.3486C69.8458 72.3486 70.101 72.4894 70.0698 78.6901C70.049 83.5922 69.0436 84.3275 61.699 84.8073C57.9746 85.0524 54.2866 85.7825 53.5053 86.4291C52.6354 87.154 52.0832 89.4851 52.0832 92.4159C52.0832 100.218 51.8957 100.384 43.1967 100.384C32.4975 100.384 28.8564 103.367 32.1172 109.464C33.0809 111.263 34.3727 111.399 50.5466 111.399C65.0275 111.399 68.205 111.659 69.5124 112.973C71.3147 114.778 71.5596 118.653 70.049 121.479C69.1009 123.252 67.8299 123.414 54.62 123.414C42.8685 123.414 39.9359 123.701 38.6545 124.989C35.0863 128.561 38.0815 134.428 43.478 134.428C47.5514 134.428 49.8434 136.05 50.5882 139.466C51.6248 144.185 49.1974 147.059 43.6499 147.684C38.0555 148.315 36.0813 149.833 36.0813 153.504C36.0813 158.991 37.6075 159.46 55.5003 159.46C69.9969 159.46 71.9554 159.658 73.4296 161.29C74.3412 162.297 75.086 164.258 75.086 165.64C75.086 169.426 72.1534 171.475 66.7569 171.475H62.0844V196.231L71.3356 202.697C89.8326 215.625 142.803 252.991 150.83 258.774C156.372 262.769 159.523 264.443 160.456 263.901C164.055 261.809 192.069 240.986 192.085 240.391C192.106 239.594 151.387 209.988 121.008 188.711C109.137 180.393 98.9014 172.962 98.2659 172.19C97.4169 171.168 97.0366 154.255 96.8491 109.678L96.5887 48.563L88.0876 54.6959ZM220.104 72.2026V96.1916L236.168 107.55L254.17 120.28C256.072 121.63 256.108 121.208 256.108 97.1042V72.5572L238.106 60.3906L220.104 48.2188V72.2026ZM18.501 62.6852C18.1936 63.4883 18.0843 65.6526 18.2614 67.4987C18.5687 70.7528 18.7041 70.8467 23.0797 70.8467H27.5802V61.8352L23.3193 61.5275C20.2929 61.3085 18.8969 61.6422 18.501 62.6852ZM130.843 93.4954L114.091 105.511V163.376L123.842 170.26C129.207 174.051 137.083 179.491 141.344 182.354L149.095 187.558V134.459C149.095 105.255 148.757 81.3862 148.345 81.4175C147.933 81.4488 140.058 86.8828 130.843 93.4954ZM167.097 134.428C167.097 163.616 167.462 187.496 167.905 187.496C169.452 187.496 244.138 135.565 244.065 134.532C244.044 134.198 238.981 130.47 232.814 126.24C226.646 122.016 209.712 110.189 195.179 99.9568C180.646 89.7302 168.384 81.3601 167.926 81.3601C167.472 81.3601 167.097 105.24 167.097 134.428ZM280.346 99.9516C267.141 111.289 267.136 111.289 272.308 116.129L274.689 118.361L283.57 111.372C288.456 107.534 292.858 104.39 293.342 104.39C293.832 104.39 297.743 107.065 302.036 110.335L309.839 116.285L313.089 112.927C314.876 111.08 316.178 109.104 315.98 108.53C315.418 106.924 295.004 89.3652 293.738 89.4017C293.118 89.4173 287.091 94.163 280.346 99.9516ZM5.74421 102.053C4.35341 103.446 5.05662 110.173 6.66098 110.788C12.3127 112.963 16.6153 109.057 14.2609 103.889C13.3753 101.944 12.3752 101.386 9.76553 101.386C7.92155 101.386 6.10883 101.688 5.74421 102.053ZM251.108 149.864C248.633 151.669 231.011 164.258 211.952 177.838C192.892 191.423 176.291 203.349 175.067 204.34L172.838 206.145L176.718 209.185C181.995 213.315 205.737 229.549 206.503 229.549C207.118 229.549 225.698 216.256 246.357 201.039L257.108 193.118V169.78C257.108 156.946 256.77 146.475 256.358 146.516C255.947 146.558 253.582 148.06 251.108 149.864ZM14.6515 150.021C12.6878 151.987 12.6148 155.825 14.5161 157.405C15.3027 158.057 17.4383 158.453 19.2667 158.276C22.2098 157.995 22.6161 157.588 22.8973 154.641C23.0745 152.811 22.6786 150.673 22.0274 149.885C20.4491 147.982 16.6153 148.055 14.6515 150.021ZM30.6691 180.565C27.0489 184.873 27.1739 189.743 31.0025 193.582C33.1694 195.746 34.878 196.507 37.5814 196.507C40.2849 196.507 41.9934 195.746 44.1604 193.582C47.989 189.743 48.114 184.873 44.4937 180.565C42.3372 177.999 41.1808 177.483 37.5814 177.483C33.982 177.483 32.8256 177.999 30.6691 180.565ZM63.2252 227.547C58.6726 231.401 54.4845 234.556 53.9116 234.556C53.3438 234.556 49.7183 231.828 45.8533 228.491L38.8316 222.426L36.4563 224.658C35.1488 225.889 34.081 227.244 34.081 227.672C34.081 229.868 52.6979 245.799 54.7606 245.372C56.5942 244.991 75.758 228.527 76.5445 226.655C77.2582 224.96 74.5287 220.538 72.768 220.538C72.07 220.538 67.7778 223.693 63.2252 227.547Z" stroke="white" stroke-width="10" mask="url(#path-1-outside-1_5_23)"/>
<defs>
<linearGradient id="paint0_linear_5_23" x1="538.065" y1="79.0946" x2="541.073" y2="176.218" gradientUnits="userSpaceOnUse">
<stop stop-color="#2B266B"/>
<stop offset="1" stop-color="#CD0E75"/>
</linearGradient>
</defs>
</svg>
