<svg width="1207" height="259" viewBox="0 0 1207 259" fill="none" xmlns="http://www.w3.org/2000/svg">
<path fill-rule="evenodd" clip-rule="evenodd" d="M136.916 11.0699C127.822 17.5022 118.067 24.3355 115.234 26.2626L110.083 29.7626L110.077 53.5126C110.077 66.5751 110.333 77.2626 110.645 77.2626C110.963 77.2626 120.447 70.7366 131.728 62.7626C143.015 54.7886 152.812 48.2626 153.499 48.2626C154.192 48.2626 164.291 55.0126 175.947 63.2626C187.598 71.5126 197.348 78.2626 197.609 78.2626C197.864 78.2626 198.077 67.4918 198.077 54.3251V30.3876L176.827 15.523C165.14 7.34593 155.098 0.371968 154.515 0.0178011C153.932 -0.336366 146.015 4.63759 136.916 11.0699ZM224.999 24.1845C218.671 30.5178 222.687 40.2626 231.624 40.2626C235.208 40.2626 236.338 39.7418 238.593 37.0595C240.848 34.3824 241.197 33.2001 240.744 29.8147C239.635 21.5438 230.801 18.3876 224.999 24.1845ZM68.791 24.273C61.9472 29.6584 66.2389 41.2626 75.0775 41.2626C80.9212 41.2626 86.0097 35.1116 84.6504 29.6949C82.9316 22.8407 74.3431 19.9084 68.791 24.273ZM27.7337 37.0907C25.5618 39.4918 25.6347 42.5491 27.9056 44.6063C29.3379 45.9032 31.7962 46.2626 39.2077 46.2626C49.7441 46.2626 51.0774 45.6272 51.0774 40.5959C51.0774 36.1324 48.9889 35.2626 38.2962 35.2626C30.9368 35.2626 29.0983 35.5803 27.7337 37.0907ZM2.86391 38.6011C1.86391 43.8147 4.85349 47.0386 9.57745 45.8511C11.7806 45.2991 12.0774 44.6897 12.0774 40.7418V36.2626H7.69203C3.88995 36.2626 3.24932 36.5751 2.86391 38.6011ZM83.0775 49.6324L74.5775 55.7626L40.5774 56.7626L40.2545 60.7209C39.7858 66.4657 41.416 67.2626 53.6608 67.2626C64.8379 67.2626 65.0931 67.4032 65.0618 73.5959C65.041 78.4918 64.0358 79.2261 56.692 79.7053C52.9681 79.9501 49.2806 80.6793 48.4993 81.3251C47.6295 82.0491 47.0774 84.3772 47.0774 87.3043C47.0774 95.0959 46.8899 95.2626 38.192 95.2626C27.4941 95.2626 23.8535 98.2418 27.1139 104.33C28.0774 106.127 29.3691 106.263 45.541 106.263C60.0202 106.263 63.1972 106.523 64.5045 107.836C66.3066 109.638 66.5514 113.507 65.041 116.33C64.0931 118.101 62.8222 118.263 49.6139 118.263C37.8639 118.263 34.9316 118.549 33.6504 119.836C30.0827 123.403 33.0774 129.263 38.4733 129.263C42.5462 129.263 44.8379 130.882 45.5827 134.294C46.6191 139.007 44.192 141.877 38.6452 142.502C33.0514 143.132 31.0774 144.648 31.0774 148.315C31.0774 153.794 32.6035 154.263 50.4941 154.263C64.9889 154.263 66.9472 154.461 68.4212 156.091C69.3327 157.096 70.0775 159.054 70.0775 160.434C70.0775 164.216 67.1452 166.263 61.7493 166.263H57.0774V190.987L66.3275 197.445C84.8222 210.356 137.786 247.674 145.812 253.45C151.353 257.44 154.505 259.112 155.437 258.57C159.036 256.481 187.046 235.684 187.062 235.091C187.083 234.294 146.369 204.726 115.994 183.476C104.124 175.169 93.8899 167.747 93.2545 166.976C92.4056 165.955 92.0254 149.065 91.8379 104.544L91.5774 43.5074L83.0775 49.6324ZM215.077 67.1168V91.0751L231.14 102.419L249.14 115.132C251.041 116.481 251.077 116.059 251.077 91.9866V67.4709L233.077 55.3199L215.077 43.1636V67.1168ZM13.4993 57.6116C13.192 58.4136 13.0827 60.5751 13.2597 62.4188C13.567 65.6689 13.7024 65.7626 18.0774 65.7626H22.5774V56.7626L18.317 56.4553C15.291 56.2366 13.8952 56.5699 13.4993 57.6116ZM385.103 65.8043C368.827 70.3564 359.739 81.0386 359.749 95.6116C359.76 112.112 367.588 119.367 392.728 126.179C411.968 131.393 416.077 133.95 416.077 140.726C416.077 147.101 409.999 150.263 397.723 150.263C388.265 150.263 380.281 148.445 371.213 144.226C367.713 142.596 364.713 141.263 364.546 141.263C364.38 141.263 363.015 144.976 361.515 149.513C360.015 154.049 358.572 158.33 358.317 159.023C357.718 160.653 368.885 165.752 377.848 167.95C387.348 170.278 406.661 170.237 414.536 167.872C426.926 164.153 433.666 159.143 438.057 150.382C441.109 144.294 441.692 136.893 439.671 129.945C436.525 119.122 427.859 113.533 404.937 107.549C389.869 103.617 385.166 101.304 383.682 97.0751C382.499 93.7261 384.38 88.9501 387.739 86.7522C394.171 82.5334 410.77 83.0074 423.926 87.7834C427.546 89.0959 430.588 90.0751 430.692 89.9657C430.796 89.8511 432.098 85.747 433.593 80.8355C436.781 70.3459 436.911 70.5803 426.093 67.1011C417.307 64.2782 393.286 63.5178 385.103 65.8043ZM489.077 65.8407C471.322 70.5126 457.932 83.523 452.687 101.195C450.614 108.19 450.572 123.903 452.609 131.721C457.161 149.2 470.369 162.096 489.63 167.877C497.546 170.252 513.249 170.242 522.077 167.851C540.822 162.783 555.958 147.773 559.994 130.263C561.525 123.612 561.296 109.518 559.546 102.804C554.864 84.8355 540.531 70.6584 522.067 65.747C514.989 63.8616 496.39 63.9189 489.077 65.8407ZM577.077 116.763V168.263H602.077V129.263H648.077V110.263H602.077V85.2626L626.327 85.1116C639.666 85.0282 651.255 84.9136 652.077 84.8616C653.281 84.7834 653.635 82.8303 653.864 75.0126L654.15 65.2626H577.077V116.763ZM659.744 65.9293C659.38 66.2939 659.077 70.7939 659.077 75.9293V85.2626H692.078V168.325L716.578 167.763L717.098 85.2626H748.078V65.2626H704.244C680.135 65.2626 660.109 65.5647 659.744 65.9293ZM753.583 67.4814C755.109 72.747 780.442 152.429 782.921 159.763L785.624 167.763H812.4L823.489 135.065C829.588 117.08 834.822 102.138 835.119 101.856C835.416 101.575 839.833 114.039 844.932 129.554C850.036 145.07 854.968 160.013 855.906 162.763L857.598 167.763L870.765 168.044L883.932 168.32L900.505 117.882C909.619 90.1428 917.078 66.9553 917.078 66.3564C917.078 65.6272 913.124 65.2626 905.213 65.2626H893.343L890.161 75.5126C888.406 81.148 883.265 97.2366 878.734 111.263L870.499 136.763L860.708 106.763C855.327 90.2626 850.13 74.2886 849.166 71.2626L847.416 65.7626L824.52 65.2001L816.734 88.4814C805.723 121.398 800.489 135.752 799.885 134.684C799.432 133.877 794.963 119.549 781.828 76.7626L778.447 65.7626L765.687 65.4814L752.921 65.2001L753.583 67.4814ZM952.218 67.0126C951.708 67.9761 947.812 76.8616 943.562 86.7626C939.312 96.6636 929.812 118.612 922.458 135.533C915.098 152.455 909.078 166.757 909.078 167.315C909.078 167.955 913.557 168.221 921.317 168.044L933.557 167.763L937.65 157.763L941.749 147.763H988.458L992.9 158.013L997.338 168.263H1009.83C1021.24 168.263 1022.27 168.112 1021.82 166.513C1021.43 165.106 989.187 91.8824 979.557 70.5126L977.187 65.2626H965.166C954.739 65.2626 953.025 65.497 952.218 67.0126ZM1007.08 65.7314C1007.08 66.2001 1016.66 88.8616 1038.71 140.539L1050.56 168.32L1062.99 168.039L1075.43 167.763L1086.62 141.263C1092.78 126.69 1102.37 103.981 1107.95 90.8095C1113.52 77.6376 1118.08 66.4866 1118.08 66.0282C1118.08 65.5751 1112.58 65.3251 1105.86 65.4814L1093.65 65.7626L1089.28 76.2626C1080.18 98.148 1063.87 136.773 1063.63 137.023C1063.5 137.169 1056.5 121.08 1048.08 101.273L1032.78 65.2626H1019.93C1012.86 65.2626 1007.08 65.4761 1007.08 65.7314ZM1126.08 116.763V168.263H1206.08V148.263H1151.08V126.263H1197.08V107.299L1174.33 107.033L1151.58 106.763L1151.29 96.0126L1151.01 85.2626H1203.08V65.2626H1126.08V116.763ZM125.827 88.3824L109.077 100.382V158.174L118.827 165.049C124.192 168.836 132.067 174.268 136.327 177.127L144.077 182.325V129.294C144.077 100.127 143.739 76.2886 143.327 76.3199C142.916 76.3511 135.041 81.7782 125.827 88.3824ZM162.077 129.263C162.077 158.414 162.442 182.263 162.885 182.263C164.432 182.263 239.109 130.398 239.036 129.367C239.015 129.033 233.952 125.309 227.786 121.086C221.619 116.867 204.687 105.054 190.156 94.8355C175.624 84.622 163.364 76.2626 162.906 76.2626C162.452 76.2626 162.077 100.112 162.077 129.263ZM275.312 94.8303C262.109 106.153 262.104 106.153 267.275 110.987L269.656 113.216L278.536 106.237C283.421 102.403 287.822 99.2626 288.307 99.2626C288.796 99.2626 292.708 101.934 296.999 105.2L304.801 111.143L308.051 107.789C309.838 105.945 311.14 103.971 310.942 103.398C310.38 101.794 289.968 84.2574 288.702 84.2939C288.083 84.3095 282.057 89.0491 275.312 94.8303ZM499.406 85.2574C490.807 87.0595 483.494 92.648 479.265 100.674C476.817 105.304 476.577 106.752 476.583 116.763C476.588 126.252 476.906 128.403 478.906 132.434C484.411 143.523 492.916 148.726 505.577 148.747C512.343 148.763 514.463 148.33 519.307 145.95C529.088 141.148 534.874 131.961 535.796 119.778C536.676 108.195 532.463 97.2886 524.786 91.247C518.192 86.0595 507.562 83.5543 499.406 85.2574ZM957.234 109.419C953.291 119.408 950.291 127.809 950.567 128.086C951.14 128.658 978.979 128.7 979.52 128.132C979.89 127.742 965.801 92.6532 964.916 91.773C964.635 91.4866 961.176 99.4293 957.234 109.419ZM0.744114 96.9293C-0.646511 98.3199 0.0566144 105.039 1.66078 105.653C7.31182 107.825 11.6139 103.924 9.25974 98.7626C8.37432 96.8199 7.37432 96.2626 4.76495 96.2626C2.9212 96.2626 1.1087 96.5647 0.744114 96.9293ZM246.077 144.679C243.603 146.481 225.984 159.054 206.926 172.617C187.869 186.184 171.27 198.096 170.046 199.086L167.817 200.888L171.697 203.924C176.973 208.049 200.713 224.263 201.479 224.263C202.093 224.263 220.671 210.987 241.327 195.789L252.077 187.877V164.57C252.077 151.752 251.739 141.294 251.327 141.336C250.916 141.377 248.551 142.877 246.077 144.679ZM9.65036 144.836C7.68682 146.799 7.61391 150.632 9.51495 152.211C10.3014 152.862 12.4368 153.257 14.2649 153.08C17.2077 152.799 17.6139 152.393 17.8952 149.45C18.0722 147.622 17.6764 145.487 17.0254 144.7C15.4472 142.799 11.6139 142.872 9.65036 144.836ZM25.666 175.341C22.0462 179.643 22.1712 184.507 25.9993 188.341C28.166 190.502 29.8743 191.263 32.5774 191.263C35.2806 191.263 36.9889 190.502 39.1556 188.341C42.9837 184.507 43.1087 179.643 39.4889 175.341C37.3327 172.778 36.1764 172.263 32.5774 172.263C28.9785 172.263 27.8222 172.778 25.666 175.341ZM58.2181 222.263C53.666 226.112 49.4785 229.263 48.9056 229.263C48.3379 229.263 44.7129 226.539 40.8483 223.205L33.8274 217.148L31.4524 219.377C30.1452 220.606 29.0774 221.961 29.0774 222.388C29.0774 224.58 47.692 240.492 49.7545 240.065C51.5879 239.685 70.7493 223.242 71.5358 221.372C72.2493 219.679 69.5202 215.263 67.7597 215.263C67.0618 215.263 62.7702 218.414 58.2181 222.263Z" fill="white"/>
</svg>
