<svg width="311" height="259" viewBox="0 0 311 259" fill="none" xmlns="http://www.w3.org/2000/svg">
<path fill-rule="evenodd" clip-rule="evenodd" d="M136.916 11.0699C127.822 17.5022 118.067 24.3355 115.234 26.2626L110.083 29.7626L110.077 53.5126C110.077 66.5751 110.333 77.2626 110.645 77.2626C110.963 77.2626 120.447 70.7366 131.728 62.7626C143.015 54.7886 152.812 48.2626 153.499 48.2626C154.192 48.2626 164.291 55.0126 175.947 63.2626C187.598 71.5126 197.348 78.2626 197.609 78.2626C197.864 78.2626 198.077 67.4918 198.077 54.3251V30.3876L176.827 15.523C165.14 7.34593 155.098 0.371968 154.515 0.0178011C153.932 -0.336366 146.015 4.63759 136.916 11.0699ZM224.999 24.1845C218.671 30.5178 222.687 40.2626 231.624 40.2626C235.208 40.2626 236.338 39.7418 238.593 37.0595C240.848 34.3824 241.197 33.2001 240.744 29.8147C239.635 21.5438 230.801 18.3876 224.999 24.1845ZM68.791 24.273C61.9472 29.6584 66.2389 41.2626 75.0775 41.2626C80.9212 41.2626 86.0097 35.1116 84.6504 29.6949C82.9316 22.8407 74.3431 19.9084 68.791 24.273ZM27.7337 37.0907C25.5618 39.4918 25.6347 42.5491 27.9056 44.6063C29.3379 45.9032 31.7962 46.2626 39.2077 46.2626C49.7441 46.2626 51.0774 45.6272 51.0774 40.5959C51.0774 36.1324 48.9889 35.2626 38.2962 35.2626C30.9368 35.2626 29.0983 35.5803 27.7337 37.0907ZM2.86391 38.6011C1.86391 43.8147 4.85349 47.0386 9.57745 45.8511C11.7806 45.2991 12.0774 44.6897 12.0774 40.7418V36.2626H7.69203C3.88995 36.2626 3.24932 36.5751 2.86391 38.6011ZM83.0775 49.6324L74.5775 55.7626L40.5774 56.7626L40.2545 60.7209C39.7858 66.4657 41.416 67.2626 53.6608 67.2626C64.8379 67.2626 65.0931 67.4032 65.0618 73.5959C65.041 78.4918 64.0358 79.2261 56.692 79.7053C52.9681 79.9501 49.2806 80.6793 48.4993 81.3251C47.6295 82.0491 47.0774 84.3772 47.0774 87.3043C47.0774 95.0959 46.8899 95.2626 38.192 95.2626C27.4941 95.2626 23.8535 98.2418 27.1139 104.33C28.0774 106.127 29.3691 106.263 45.541 106.263C60.0202 106.263 63.1972 106.523 64.5045 107.836C66.3066 109.638 66.5514 113.507 65.041 116.33C64.0931 118.101 62.8222 118.263 49.6139 118.263C37.8639 118.263 34.9316 118.549 33.6504 119.836C30.0827 123.403 33.0774 129.263 38.4733 129.263C42.5462 129.263 44.8379 130.882 45.5827 134.294C46.6191 139.007 44.192 141.877 38.6452 142.502C33.0514 143.132 31.0774 144.648 31.0774 148.315C31.0774 153.794 32.6035 154.263 50.4941 154.263C64.9889 154.263 66.9472 154.461 68.4212 156.091C69.3327 157.096 70.0775 159.054 70.0775 160.434C70.0775 164.216 67.1452 166.263 61.7493 166.263H57.0774V190.987L66.3275 197.445C84.8222 210.356 137.786 247.674 145.812 253.45C151.353 257.44 154.505 259.112 155.437 258.57C159.036 256.481 187.046 235.684 187.062 235.091C187.083 234.294 146.369 204.726 115.994 183.476C104.124 175.169 93.8899 167.747 93.2545 166.976C92.4056 165.955 92.0254 149.065 91.8379 104.544L91.5774 43.5074L83.0775 49.6324ZM215.077 67.1168V91.0751L231.14 102.419L249.14 115.132C251.041 116.481 251.077 116.059 251.077 91.9866V67.4709L233.077 55.3199L215.077 43.1636V67.1168ZM13.4993 57.6116C13.192 58.4136 13.0827 60.5751 13.2597 62.4188C13.567 65.6689 13.7024 65.7626 18.0774 65.7626H22.5774V56.7626L18.317 56.4553C15.291 56.2366 13.8952 56.5699 13.4993 57.6116ZM125.827 88.3824L109.077 100.382V158.174L118.827 165.049C124.192 168.836 132.067 174.268 136.327 177.127L144.077 182.325V129.294C144.077 100.127 143.739 76.2886 143.327 76.3199C142.916 76.3511 135.041 81.7782 125.827 88.3824ZM162.077 129.263C162.077 158.414 162.442 182.263 162.885 182.263C164.432 182.263 239.109 130.398 239.036 129.367C239.015 129.033 233.952 125.309 227.786 121.086C221.619 116.867 204.687 105.054 190.156 94.8355C175.624 84.622 163.364 76.2626 162.906 76.2626C162.452 76.2626 162.077 100.112 162.077 129.263ZM275.312 94.8303C262.109 106.153 262.104 106.153 267.275 110.987L269.656 113.216L278.536 106.237C283.421 102.403 287.822 99.2626 288.307 99.2626C288.796 99.2626 292.708 101.934 296.999 105.2L304.801 111.143L308.051 107.789C309.838 105.945 311.14 103.971 310.942 103.398C310.38 101.794 289.968 84.2574 288.702 84.2939C288.083 84.3095 282.057 89.0491 275.312 94.8303ZM0.744114 96.9293C-0.646511 98.3199 0.0566144 105.039 1.66078 105.653C7.31182 107.825 11.6139 103.924 9.25974 98.7626C8.37432 96.8199 7.37432 96.2626 4.76495 96.2626C2.9212 96.2626 1.1087 96.5647 0.744114 96.9293ZM246.077 144.679C243.603 146.481 225.984 159.054 206.926 172.617C187.869 186.184 171.27 198.096 170.046 199.086L167.817 200.888L171.697 203.924C176.973 208.049 200.713 224.263 201.479 224.263C202.093 224.263 220.671 210.987 241.327 195.789L252.077 187.877V164.57C252.077 151.752 251.739 141.294 251.327 141.336C250.916 141.377 248.551 142.877 246.077 144.679ZM9.65036 144.836C7.68682 146.799 7.61391 150.632 9.51495 152.211C10.3014 152.862 12.4368 153.257 14.2649 153.08C17.2077 152.799 17.6139 152.393 17.8952 149.45C18.0722 147.622 17.6764 145.487 17.0254 144.7C15.4472 142.799 11.6139 142.872 9.65036 144.836ZM25.666 175.341C22.0462 179.643 22.1712 184.507 25.9993 188.341C28.166 190.502 29.8743 191.263 32.5774 191.263C35.2806 191.263 36.9889 190.502 39.1556 188.341C42.9837 184.507 43.1087 179.643 39.4889 175.341C37.3327 172.778 36.1764 172.263 32.5774 172.263C28.9785 172.263 27.8222 172.778 25.666 175.341ZM58.2181 222.263C53.666 226.112 49.4785 229.263 48.9056 229.263C48.3379 229.263 44.7129 226.539 40.8483 223.205L33.8274 217.148L31.4524 219.377C30.1452 220.606 29.0774 221.961 29.0774 222.388C29.0774 224.58 47.692 240.492 49.7545 240.065C51.5879 239.685 70.7493 223.242 71.5358 221.372C72.2493 219.679 69.5202 215.263 67.7597 215.263C67.0618 215.263 62.7702 218.414 58.2181 222.263Z" fill="white"/>
</svg>
