<svg width="1217" height="269" viewBox="0 0 1217 269" fill="none" xmlns="http://www.w3.org/2000/svg">
<mask id="path-1-outside-1_6_27" maskUnits="userSpaceOnUse" x="0" y="-1.14441e-05" width="1217" height="269" fill="black">
<rect fill="white" y="-1.14441e-05" width="1217" height="269"/>
<path fill-rule="evenodd" clip-rule="evenodd" d="M141.916 16.0699C132.822 22.5022 123.067 29.3355 120.234 31.2626L115.083 34.7626L115.077 58.5126C115.077 71.5751 115.333 82.2626 115.645 82.2626C115.963 82.2626 125.447 75.7365 136.728 67.7626C148.015 59.7886 157.812 53.2626 158.499 53.2626C159.192 53.2626 169.291 60.0126 180.947 68.2626C192.598 76.5126 202.348 83.2626 202.609 83.2626C202.864 83.2626 203.077 72.4918 203.077 59.3251V35.3876L181.827 20.523C170.14 12.3459 160.098 5.37196 159.515 5.01779C158.932 4.66362 151.015 9.63758 141.916 16.0699ZM229.999 29.1845C223.671 35.5178 227.687 45.2626 236.624 45.2626C240.208 45.2626 241.338 44.7418 243.593 42.0595C245.848 39.3824 246.197 38.2001 245.744 34.8147C244.635 26.5438 235.801 23.3876 229.999 29.1845ZM73.791 29.273C66.9472 34.6584 71.2389 46.2626 80.0775 46.2626C85.9212 46.2626 91.0097 40.1115 89.6504 34.6949C87.9316 27.8407 79.3431 24.9084 73.791 29.273ZM32.7337 42.0907C30.5618 44.4918 30.6347 47.549 32.9056 49.6063C34.3379 50.9032 36.7962 51.2626 44.2077 51.2626C54.7441 51.2626 56.0774 50.6272 56.0774 45.5959C56.0774 41.1324 53.9889 40.2626 43.2962 40.2626C35.9368 40.2626 34.0983 40.5803 32.7337 42.0907ZM7.86391 43.6011C6.86391 48.8147 9.85349 52.0386 14.5774 50.8511C16.7806 50.299 17.0774 49.6897 17.0774 45.7418V41.2626H12.692C8.88995 41.2626 8.24932 41.5751 7.86391 43.6011ZM88.0775 54.6324L79.5775 60.7626L45.5774 61.7626L45.2545 65.7209C44.7858 71.4657 46.416 72.2626 58.6608 72.2626C69.8379 72.2626 70.0931 72.4032 70.0618 78.5959C70.041 83.4918 69.0358 84.2261 61.692 84.7053C57.9681 84.9501 54.2806 85.6793 53.4993 86.3251C52.6295 87.0491 52.0774 89.3772 52.0774 92.3043C52.0774 100.096 51.8899 100.263 43.192 100.263C32.4941 100.263 28.8535 103.242 32.1139 109.33C33.0774 111.127 34.3691 111.263 50.541 111.263C65.0202 111.263 68.1972 111.523 69.5045 112.836C71.3066 114.638 71.5514 118.507 70.041 121.33C69.0931 123.101 67.8222 123.263 54.6139 123.263C42.8639 123.263 39.9316 123.549 38.6504 124.836C35.0827 128.403 38.0774 134.263 43.4733 134.263C47.5462 134.263 49.8379 135.882 50.5827 139.294C51.6191 144.007 49.192 146.877 43.6452 147.502C38.0514 148.132 36.0774 149.648 36.0774 153.315C36.0774 158.794 37.6035 159.263 55.4941 159.263C69.9889 159.263 71.9472 159.461 73.4212 161.091C74.3327 162.096 75.0775 164.054 75.0775 165.434C75.0775 169.216 72.1452 171.263 66.7493 171.263H62.0774V195.987L71.3275 202.445C89.8223 215.356 142.786 252.674 150.812 258.45C156.354 262.44 159.505 264.112 160.437 263.57C164.036 261.481 192.046 240.684 192.062 240.091C192.083 239.294 151.369 209.726 120.994 188.476C109.124 180.169 98.8899 172.747 98.2545 171.976C97.4056 170.955 97.0254 154.065 96.8379 109.544L96.5774 48.5074L88.0775 54.6324ZM220.077 72.1168V96.0751L236.14 107.419L254.14 120.132C256.041 121.481 256.077 121.059 256.077 96.9866V72.4709L238.077 60.3199L220.077 48.1636V72.1168ZM18.4993 62.6115C18.192 63.4136 18.0827 65.5751 18.2597 67.4188C18.567 70.6688 18.7024 70.7626 23.0774 70.7626H27.5774V61.7626L23.317 61.4553C20.291 61.2365 18.8952 61.5699 18.4993 62.6115ZM390.103 70.8043C373.827 75.3563 364.739 86.0386 364.749 100.612C364.76 117.112 372.588 124.367 397.728 131.179C416.968 136.393 421.077 138.95 421.077 145.726C421.077 152.101 414.999 155.263 402.723 155.263C393.265 155.263 385.281 153.445 376.213 149.226C372.713 147.596 369.713 146.263 369.546 146.263C369.38 146.263 368.015 149.976 366.515 154.513C365.015 159.049 363.572 163.33 363.317 164.023C362.718 165.653 373.885 170.752 382.848 172.95C392.348 175.278 411.661 175.237 419.536 172.872C431.926 169.153 438.666 164.143 443.057 155.382C446.109 149.294 446.692 141.893 444.671 134.945C441.525 124.122 432.859 118.533 409.937 112.549C394.869 108.617 390.166 106.304 388.682 102.075C387.499 98.7261 389.38 93.9501 392.739 91.7522C399.171 87.5334 415.77 88.0074 428.926 92.7834C432.546 94.0959 435.588 95.0751 435.692 94.9657C435.796 94.8511 437.098 90.747 438.593 85.8355C441.781 75.3459 441.911 75.5803 431.093 72.1011C422.307 69.2782 398.286 68.5178 390.103 70.8043ZM494.077 70.8407C476.322 75.5126 462.932 88.523 457.687 106.195C455.614 113.19 455.572 128.903 457.609 136.721C462.161 154.2 475.369 167.096 494.63 172.877C502.546 175.252 518.249 175.242 527.077 172.851C545.822 167.783 560.958 152.773 564.994 135.263C566.525 128.612 566.296 114.518 564.546 107.804C559.864 89.8355 545.531 75.6584 527.067 70.747C519.989 68.8615 501.39 68.9188 494.077 70.8407ZM582.077 121.763V173.263H607.077V134.263H653.077V115.263H607.077V90.2626L631.327 90.1116C644.666 90.0282 656.255 89.9136 657.077 89.8616C658.281 89.7834 658.635 87.8303 658.864 80.0126L659.15 70.2626H582.077V121.763ZM664.744 70.9293C664.38 71.2938 664.077 75.7938 664.077 80.9293V90.2626H697.078V173.325L721.578 172.763L722.098 90.2626H753.078V70.2626H709.244C685.135 70.2626 665.109 70.5647 664.744 70.9293ZM758.583 72.4813C760.109 77.747 785.442 157.429 787.921 164.763L790.624 172.763H817.4L828.489 140.065C834.588 122.08 839.822 107.138 840.119 106.856C840.416 106.575 844.833 119.039 849.932 134.554C855.036 150.07 859.968 165.013 860.906 167.763L862.598 172.763L875.765 173.044L888.932 173.32L905.505 122.882C914.619 95.1428 922.078 71.9553 922.078 71.3563C922.078 70.6272 918.124 70.2626 910.213 70.2626H898.343L895.161 80.5126C893.406 86.148 888.265 102.237 883.734 116.263L875.499 141.763L865.708 111.763C860.328 95.2626 855.13 79.2886 854.166 76.2626L852.416 70.7626L829.52 70.2001L821.734 93.4813C810.723 126.398 805.489 140.752 804.885 139.684C804.432 138.877 799.963 124.549 786.828 81.7626L783.447 70.7626L770.687 70.4813L757.921 70.2001L758.583 72.4813ZM957.218 72.0126C956.708 72.9761 952.812 81.8616 948.562 91.7626C944.312 101.664 934.812 123.612 927.458 140.533C920.098 157.455 914.078 171.757 914.078 172.315C914.078 172.955 918.557 173.221 926.317 173.044L938.557 172.763L942.65 162.763L946.749 152.763H993.458L997.9 163.013L1002.34 173.263H1014.83C1026.24 173.263 1027.27 173.112 1026.82 171.513C1026.43 170.106 994.187 96.8824 984.557 75.5126L982.187 70.2626H970.166C959.739 70.2626 958.025 70.497 957.218 72.0126ZM1012.08 70.7313C1012.08 71.2001 1021.66 93.8615 1043.71 145.539L1055.56 173.32L1067.99 173.039L1080.43 172.763L1091.62 146.263C1097.78 131.69 1107.37 108.981 1112.95 95.8095C1118.52 82.6376 1123.08 71.4866 1123.08 71.0282C1123.08 70.5751 1117.58 70.3251 1110.86 70.4813L1098.65 70.7626L1094.28 81.2626C1085.18 103.148 1068.87 141.773 1068.63 142.023C1068.5 142.169 1061.5 126.08 1053.08 106.273L1037.78 70.2626H1024.93C1017.86 70.2626 1012.08 70.4761 1012.08 70.7313ZM1131.08 121.763V173.263H1211.08V153.263H1156.08V131.263H1202.08V112.299L1179.33 112.033L1156.58 111.763L1156.29 101.013L1156.01 90.2626H1208.08V70.2626H1131.08V121.763ZM130.827 93.3824L114.077 105.382V163.174L123.827 170.049C129.192 173.836 137.067 179.268 141.327 182.127L149.077 187.325V134.294C149.077 105.127 148.739 81.2886 148.327 81.3199C147.916 81.3511 140.041 86.7782 130.827 93.3824ZM167.077 134.263C167.077 163.414 167.442 187.263 167.885 187.263C169.432 187.263 244.109 135.398 244.036 134.367C244.015 134.033 238.952 130.309 232.786 126.086C226.619 121.867 209.687 110.054 195.156 99.8355C180.624 89.622 168.364 81.2626 167.906 81.2626C167.452 81.2626 167.077 105.112 167.077 134.263ZM280.312 99.8303C267.109 111.153 267.104 111.153 272.275 115.987L274.656 118.216L283.536 111.237C288.421 107.403 292.822 104.263 293.307 104.263C293.796 104.263 297.708 106.934 301.999 110.2L309.801 116.143L313.051 112.789C314.838 110.945 316.14 108.971 315.942 108.398C315.38 106.794 294.968 89.2574 293.702 89.2938C293.083 89.3095 287.057 94.0491 280.312 99.8303ZM504.406 90.2574C495.807 92.0595 488.494 97.648 484.265 105.674C481.817 110.304 481.577 111.752 481.583 121.763C481.588 131.252 481.906 133.403 483.906 137.434C489.411 148.523 497.916 153.726 510.577 153.747C517.343 153.763 519.463 153.33 524.307 150.95C534.088 146.148 539.874 136.961 540.796 124.778C541.676 113.195 537.463 102.289 529.786 96.247C523.192 91.0595 512.562 88.5543 504.406 90.2574ZM962.234 114.419C958.291 124.408 955.291 132.809 955.567 133.086C956.14 133.658 983.979 133.7 984.52 133.132C984.89 132.742 970.801 97.6532 969.916 96.773C969.635 96.4865 966.176 104.429 962.234 114.419ZM5.74411 101.929C4.35349 103.32 5.05661 110.039 6.66078 110.653C12.3118 112.825 16.6139 108.924 14.2597 103.763C13.3743 101.82 12.3743 101.263 9.76495 101.263C7.9212 101.263 6.1087 101.565 5.74411 101.929ZM251.077 149.679C248.604 151.481 230.984 164.054 211.926 177.617C192.869 191.184 176.27 203.096 175.046 204.086L172.817 205.888L176.697 208.924C181.973 213.049 205.713 229.263 206.479 229.263C207.093 229.263 225.671 215.987 246.327 200.789L257.077 192.877V169.57C257.077 156.752 256.739 146.294 256.327 146.336C255.916 146.377 253.551 147.877 251.077 149.679ZM14.6504 149.836C12.6868 151.799 12.6139 155.632 14.5149 157.211C15.3014 157.862 17.4368 158.257 19.2649 158.08C22.2077 157.799 22.6139 157.393 22.8952 154.45C23.0722 152.622 22.6764 150.487 22.0254 149.7C20.4472 147.799 16.6139 147.872 14.6504 149.836ZM30.666 180.341C27.0462 184.643 27.1712 189.507 30.9993 193.341C33.166 195.502 34.8743 196.263 37.5774 196.263C40.2806 196.263 41.9889 195.502 44.1556 193.341C47.9837 189.507 48.1087 184.643 44.4889 180.341C42.3327 177.778 41.1764 177.263 37.5774 177.263C33.9785 177.263 32.8222 177.778 30.666 180.341ZM63.2181 227.263C58.666 231.112 54.4785 234.263 53.9056 234.263C53.3379 234.263 49.7129 231.539 45.8483 228.205L38.8274 222.148L36.4524 224.377C35.1452 225.606 34.0774 226.961 34.0774 227.388C34.0774 229.58 52.692 245.492 54.7545 245.065C56.5879 244.684 75.7493 228.242 76.5358 226.372C77.2493 224.679 74.5202 220.263 72.7597 220.263C72.0618 220.263 67.7702 223.414 63.2181 227.263Z"/>
</mask>
<path fill-rule="evenodd" clip-rule="evenodd" d="M141.916 16.0699C132.822 22.5022 123.067 29.3355 120.234 31.2626L115.083 34.7626L115.077 58.5126C115.077 71.5751 115.333 82.2626 115.645 82.2626C115.963 82.2626 125.447 75.7365 136.728 67.7626C148.015 59.7886 157.812 53.2626 158.499 53.2626C159.192 53.2626 169.291 60.0126 180.947 68.2626C192.598 76.5126 202.348 83.2626 202.609 83.2626C202.864 83.2626 203.077 72.4918 203.077 59.3251V35.3876L181.827 20.523C170.14 12.3459 160.098 5.37196 159.515 5.01779C158.932 4.66362 151.015 9.63758 141.916 16.0699ZM229.999 29.1845C223.671 35.5178 227.687 45.2626 236.624 45.2626C240.208 45.2626 241.338 44.7418 243.593 42.0595C245.848 39.3824 246.197 38.2001 245.744 34.8147C244.635 26.5438 235.801 23.3876 229.999 29.1845ZM73.791 29.273C66.9472 34.6584 71.2389 46.2626 80.0775 46.2626C85.9212 46.2626 91.0097 40.1115 89.6504 34.6949C87.9316 27.8407 79.3431 24.9084 73.791 29.273ZM32.7337 42.0907C30.5618 44.4918 30.6347 47.549 32.9056 49.6063C34.3379 50.9032 36.7962 51.2626 44.2077 51.2626C54.7441 51.2626 56.0774 50.6272 56.0774 45.5959C56.0774 41.1324 53.9889 40.2626 43.2962 40.2626C35.9368 40.2626 34.0983 40.5803 32.7337 42.0907ZM7.86391 43.6011C6.86391 48.8147 9.85349 52.0386 14.5774 50.8511C16.7806 50.299 17.0774 49.6897 17.0774 45.7418V41.2626H12.692C8.88995 41.2626 8.24932 41.5751 7.86391 43.6011ZM88.0775 54.6324L79.5775 60.7626L45.5774 61.7626L45.2545 65.7209C44.7858 71.4657 46.416 72.2626 58.6608 72.2626C69.8379 72.2626 70.0931 72.4032 70.0618 78.5959C70.041 83.4918 69.0358 84.2261 61.692 84.7053C57.9681 84.9501 54.2806 85.6793 53.4993 86.3251C52.6295 87.0491 52.0774 89.3772 52.0774 92.3043C52.0774 100.096 51.8899 100.263 43.192 100.263C32.4941 100.263 28.8535 103.242 32.1139 109.33C33.0774 111.127 34.3691 111.263 50.541 111.263C65.0202 111.263 68.1972 111.523 69.5045 112.836C71.3066 114.638 71.5514 118.507 70.041 121.33C69.0931 123.101 67.8222 123.263 54.6139 123.263C42.8639 123.263 39.9316 123.549 38.6504 124.836C35.0827 128.403 38.0774 134.263 43.4733 134.263C47.5462 134.263 49.8379 135.882 50.5827 139.294C51.6191 144.007 49.192 146.877 43.6452 147.502C38.0514 148.132 36.0774 149.648 36.0774 153.315C36.0774 158.794 37.6035 159.263 55.4941 159.263C69.9889 159.263 71.9472 159.461 73.4212 161.091C74.3327 162.096 75.0775 164.054 75.0775 165.434C75.0775 169.216 72.1452 171.263 66.7493 171.263H62.0774V195.987L71.3275 202.445C89.8223 215.356 142.786 252.674 150.812 258.45C156.354 262.44 159.505 264.112 160.437 263.57C164.036 261.481 192.046 240.684 192.062 240.091C192.083 239.294 151.369 209.726 120.994 188.476C109.124 180.169 98.8899 172.747 98.2545 171.976C97.4056 170.955 97.0254 154.065 96.8379 109.544L96.5774 48.5074L88.0775 54.6324ZM220.077 72.1168V96.0751L236.14 107.419L254.14 120.132C256.041 121.481 256.077 121.059 256.077 96.9866V72.4709L238.077 60.3199L220.077 48.1636V72.1168ZM18.4993 62.6115C18.192 63.4136 18.0827 65.5751 18.2597 67.4188C18.567 70.6688 18.7024 70.7626 23.0774 70.7626H27.5774V61.7626L23.317 61.4553C20.291 61.2365 18.8952 61.5699 18.4993 62.6115ZM390.103 70.8043C373.827 75.3563 364.739 86.0386 364.749 100.612C364.76 117.112 372.588 124.367 397.728 131.179C416.968 136.393 421.077 138.95 421.077 145.726C421.077 152.101 414.999 155.263 402.723 155.263C393.265 155.263 385.281 153.445 376.213 149.226C372.713 147.596 369.713 146.263 369.546 146.263C369.38 146.263 368.015 149.976 366.515 154.513C365.015 159.049 363.572 163.33 363.317 164.023C362.718 165.653 373.885 170.752 382.848 172.95C392.348 175.278 411.661 175.237 419.536 172.872C431.926 169.153 438.666 164.143 443.057 155.382C446.109 149.294 446.692 141.893 444.671 134.945C441.525 124.122 432.859 118.533 409.937 112.549C394.869 108.617 390.166 106.304 388.682 102.075C387.499 98.7261 389.38 93.9501 392.739 91.7522C399.171 87.5334 415.77 88.0074 428.926 92.7834C432.546 94.0959 435.588 95.0751 435.692 94.9657C435.796 94.8511 437.098 90.747 438.593 85.8355C441.781 75.3459 441.911 75.5803 431.093 72.1011C422.307 69.2782 398.286 68.5178 390.103 70.8043ZM494.077 70.8407C476.322 75.5126 462.932 88.523 457.687 106.195C455.614 113.19 455.572 128.903 457.609 136.721C462.161 154.2 475.369 167.096 494.63 172.877C502.546 175.252 518.249 175.242 527.077 172.851C545.822 167.783 560.958 152.773 564.994 135.263C566.525 128.612 566.296 114.518 564.546 107.804C559.864 89.8355 545.531 75.6584 527.067 70.747C519.989 68.8615 501.39 68.9188 494.077 70.8407ZM582.077 121.763V173.263H607.077V134.263H653.077V115.263H607.077V90.2626L631.327 90.1116C644.666 90.0282 656.255 89.9136 657.077 89.8616C658.281 89.7834 658.635 87.8303 658.864 80.0126L659.15 70.2626H582.077V121.763ZM664.744 70.9293C664.38 71.2938 664.077 75.7938 664.077 80.9293V90.2626H697.078V173.325L721.578 172.763L722.098 90.2626H753.078V70.2626H709.244C685.135 70.2626 665.109 70.5647 664.744 70.9293ZM758.583 72.4813C760.109 77.747 785.442 157.429 787.921 164.763L790.624 172.763H817.4L828.489 140.065C834.588 122.08 839.822 107.138 840.119 106.856C840.416 106.575 844.833 119.039 849.932 134.554C855.036 150.07 859.968 165.013 860.906 167.763L862.598 172.763L875.765 173.044L888.932 173.32L905.505 122.882C914.619 95.1428 922.078 71.9553 922.078 71.3563C922.078 70.6272 918.124 70.2626 910.213 70.2626H898.343L895.161 80.5126C893.406 86.148 888.265 102.237 883.734 116.263L875.499 141.763L865.708 111.763C860.328 95.2626 855.13 79.2886 854.166 76.2626L852.416 70.7626L829.52 70.2001L821.734 93.4813C810.723 126.398 805.489 140.752 804.885 139.684C804.432 138.877 799.963 124.549 786.828 81.7626L783.447 70.7626L770.687 70.4813L757.921 70.2001L758.583 72.4813ZM957.218 72.0126C956.708 72.9761 952.812 81.8616 948.562 91.7626C944.312 101.664 934.812 123.612 927.458 140.533C920.098 157.455 914.078 171.757 914.078 172.315C914.078 172.955 918.557 173.221 926.317 173.044L938.557 172.763L942.65 162.763L946.749 152.763H993.458L997.9 163.013L1002.34 173.263H1014.83C1026.24 173.263 1027.27 173.112 1026.82 171.513C1026.43 170.106 994.187 96.8824 984.557 75.5126L982.187 70.2626H970.166C959.739 70.2626 958.025 70.497 957.218 72.0126ZM1012.08 70.7313C1012.08 71.2001 1021.66 93.8615 1043.71 145.539L1055.56 173.32L1067.99 173.039L1080.43 172.763L1091.62 146.263C1097.78 131.69 1107.37 108.981 1112.95 95.8095C1118.52 82.6376 1123.08 71.4866 1123.08 71.0282C1123.08 70.5751 1117.58 70.3251 1110.86 70.4813L1098.65 70.7626L1094.28 81.2626C1085.18 103.148 1068.87 141.773 1068.63 142.023C1068.5 142.169 1061.5 126.08 1053.08 106.273L1037.78 70.2626H1024.93C1017.86 70.2626 1012.08 70.4761 1012.08 70.7313ZM1131.08 121.763V173.263H1211.08V153.263H1156.08V131.263H1202.08V112.299L1179.33 112.033L1156.58 111.763L1156.29 101.013L1156.01 90.2626H1208.08V70.2626H1131.08V121.763ZM130.827 93.3824L114.077 105.382V163.174L123.827 170.049C129.192 173.836 137.067 179.268 141.327 182.127L149.077 187.325V134.294C149.077 105.127 148.739 81.2886 148.327 81.3199C147.916 81.3511 140.041 86.7782 130.827 93.3824ZM167.077 134.263C167.077 163.414 167.442 187.263 167.885 187.263C169.432 187.263 244.109 135.398 244.036 134.367C244.015 134.033 238.952 130.309 232.786 126.086C226.619 121.867 209.687 110.054 195.156 99.8355C180.624 89.622 168.364 81.2626 167.906 81.2626C167.452 81.2626 167.077 105.112 167.077 134.263ZM280.312 99.8303C267.109 111.153 267.104 111.153 272.275 115.987L274.656 118.216L283.536 111.237C288.421 107.403 292.822 104.263 293.307 104.263C293.796 104.263 297.708 106.934 301.999 110.2L309.801 116.143L313.051 112.789C314.838 110.945 316.14 108.971 315.942 108.398C315.38 106.794 294.968 89.2574 293.702 89.2938C293.083 89.3095 287.057 94.0491 280.312 99.8303ZM504.406 90.2574C495.807 92.0595 488.494 97.648 484.265 105.674C481.817 110.304 481.577 111.752 481.583 121.763C481.588 131.252 481.906 133.403 483.906 137.434C489.411 148.523 497.916 153.726 510.577 153.747C517.343 153.763 519.463 153.33 524.307 150.95C534.088 146.148 539.874 136.961 540.796 124.778C541.676 113.195 537.463 102.289 529.786 96.247C523.192 91.0595 512.562 88.5543 504.406 90.2574ZM962.234 114.419C958.291 124.408 955.291 132.809 955.567 133.086C956.14 133.658 983.979 133.7 984.52 133.132C984.89 132.742 970.801 97.6532 969.916 96.773C969.635 96.4865 966.176 104.429 962.234 114.419ZM5.74411 101.929C4.35349 103.32 5.05661 110.039 6.66078 110.653C12.3118 112.825 16.6139 108.924 14.2597 103.763C13.3743 101.82 12.3743 101.263 9.76495 101.263C7.9212 101.263 6.1087 101.565 5.74411 101.929ZM251.077 149.679C248.604 151.481 230.984 164.054 211.926 177.617C192.869 191.184 176.27 203.096 175.046 204.086L172.817 205.888L176.697 208.924C181.973 213.049 205.713 229.263 206.479 229.263C207.093 229.263 225.671 215.987 246.327 200.789L257.077 192.877V169.57C257.077 156.752 256.739 146.294 256.327 146.336C255.916 146.377 253.551 147.877 251.077 149.679ZM14.6504 149.836C12.6868 151.799 12.6139 155.632 14.5149 157.211C15.3014 157.862 17.4368 158.257 19.2649 158.08C22.2077 157.799 22.6139 157.393 22.8952 154.45C23.0722 152.622 22.6764 150.487 22.0254 149.7C20.4472 147.799 16.6139 147.872 14.6504 149.836ZM30.666 180.341C27.0462 184.643 27.1712 189.507 30.9993 193.341C33.166 195.502 34.8743 196.263 37.5774 196.263C40.2806 196.263 41.9889 195.502 44.1556 193.341C47.9837 189.507 48.1087 184.643 44.4889 180.341C42.3327 177.778 41.1764 177.263 37.5774 177.263C33.9785 177.263 32.8222 177.778 30.666 180.341ZM63.2181 227.263C58.666 231.112 54.4785 234.263 53.9056 234.263C53.3379 234.263 49.7129 231.539 45.8483 228.205L38.8274 222.148L36.4524 224.377C35.1452 225.606 34.0774 226.961 34.0774 227.388C34.0774 229.58 52.692 245.492 54.7545 245.065C56.5879 244.684 75.7493 228.242 76.5358 226.372C77.2493 224.679 74.5202 220.263 72.7597 220.263C72.0618 220.263 67.7702 223.414 63.2181 227.263Z" fill="url(#paint0_linear_6_27)"/>
<path fill-rule="evenodd" clip-rule="evenodd" d="M141.916 16.0699C132.822 22.5022 123.067 29.3355 120.234 31.2626L115.083 34.7626L115.077 58.5126C115.077 71.5751 115.333 82.2626 115.645 82.2626C115.963 82.2626 125.447 75.7365 136.728 67.7626C148.015 59.7886 157.812 53.2626 158.499 53.2626C159.192 53.2626 169.291 60.0126 180.947 68.2626C192.598 76.5126 202.348 83.2626 202.609 83.2626C202.864 83.2626 203.077 72.4918 203.077 59.3251V35.3876L181.827 20.523C170.14 12.3459 160.098 5.37196 159.515 5.01779C158.932 4.66362 151.015 9.63758 141.916 16.0699ZM229.999 29.1845C223.671 35.5178 227.687 45.2626 236.624 45.2626C240.208 45.2626 241.338 44.7418 243.593 42.0595C245.848 39.3824 246.197 38.2001 245.744 34.8147C244.635 26.5438 235.801 23.3876 229.999 29.1845ZM73.791 29.273C66.9472 34.6584 71.2389 46.2626 80.0775 46.2626C85.9212 46.2626 91.0097 40.1115 89.6504 34.6949C87.9316 27.8407 79.3431 24.9084 73.791 29.273ZM32.7337 42.0907C30.5618 44.4918 30.6347 47.549 32.9056 49.6063C34.3379 50.9032 36.7962 51.2626 44.2077 51.2626C54.7441 51.2626 56.0774 50.6272 56.0774 45.5959C56.0774 41.1324 53.9889 40.2626 43.2962 40.2626C35.9368 40.2626 34.0983 40.5803 32.7337 42.0907ZM7.86391 43.6011C6.86391 48.8147 9.85349 52.0386 14.5774 50.8511C16.7806 50.299 17.0774 49.6897 17.0774 45.7418V41.2626H12.692C8.88995 41.2626 8.24932 41.5751 7.86391 43.6011ZM88.0775 54.6324L79.5775 60.7626L45.5774 61.7626L45.2545 65.7209C44.7858 71.4657 46.416 72.2626 58.6608 72.2626C69.8379 72.2626 70.0931 72.4032 70.0618 78.5959C70.041 83.4918 69.0358 84.2261 61.692 84.7053C57.9681 84.9501 54.2806 85.6793 53.4993 86.3251C52.6295 87.0491 52.0774 89.3772 52.0774 92.3043C52.0774 100.096 51.8899 100.263 43.192 100.263C32.4941 100.263 28.8535 103.242 32.1139 109.33C33.0774 111.127 34.3691 111.263 50.541 111.263C65.0202 111.263 68.1972 111.523 69.5045 112.836C71.3066 114.638 71.5514 118.507 70.041 121.33C69.0931 123.101 67.8222 123.263 54.6139 123.263C42.8639 123.263 39.9316 123.549 38.6504 124.836C35.0827 128.403 38.0774 134.263 43.4733 134.263C47.5462 134.263 49.8379 135.882 50.5827 139.294C51.6191 144.007 49.192 146.877 43.6452 147.502C38.0514 148.132 36.0774 149.648 36.0774 153.315C36.0774 158.794 37.6035 159.263 55.4941 159.263C69.9889 159.263 71.9472 159.461 73.4212 161.091C74.3327 162.096 75.0775 164.054 75.0775 165.434C75.0775 169.216 72.1452 171.263 66.7493 171.263H62.0774V195.987L71.3275 202.445C89.8223 215.356 142.786 252.674 150.812 258.45C156.354 262.44 159.505 264.112 160.437 263.57C164.036 261.481 192.046 240.684 192.062 240.091C192.083 239.294 151.369 209.726 120.994 188.476C109.124 180.169 98.8899 172.747 98.2545 171.976C97.4056 170.955 97.0254 154.065 96.8379 109.544L96.5774 48.5074L88.0775 54.6324ZM220.077 72.1168V96.0751L236.14 107.419L254.14 120.132C256.041 121.481 256.077 121.059 256.077 96.9866V72.4709L238.077 60.3199L220.077 48.1636V72.1168ZM18.4993 62.6115C18.192 63.4136 18.0827 65.5751 18.2597 67.4188C18.567 70.6688 18.7024 70.7626 23.0774 70.7626H27.5774V61.7626L23.317 61.4553C20.291 61.2365 18.8952 61.5699 18.4993 62.6115ZM390.103 70.8043C373.827 75.3563 364.739 86.0386 364.749 100.612C364.76 117.112 372.588 124.367 397.728 131.179C416.968 136.393 421.077 138.95 421.077 145.726C421.077 152.101 414.999 155.263 402.723 155.263C393.265 155.263 385.281 153.445 376.213 149.226C372.713 147.596 369.713 146.263 369.546 146.263C369.38 146.263 368.015 149.976 366.515 154.513C365.015 159.049 363.572 163.33 363.317 164.023C362.718 165.653 373.885 170.752 382.848 172.95C392.348 175.278 411.661 175.237 419.536 172.872C431.926 169.153 438.666 164.143 443.057 155.382C446.109 149.294 446.692 141.893 444.671 134.945C441.525 124.122 432.859 118.533 409.937 112.549C394.869 108.617 390.166 106.304 388.682 102.075C387.499 98.7261 389.38 93.9501 392.739 91.7522C399.171 87.5334 415.77 88.0074 428.926 92.7834C432.546 94.0959 435.588 95.0751 435.692 94.9657C435.796 94.8511 437.098 90.747 438.593 85.8355C441.781 75.3459 441.911 75.5803 431.093 72.1011C422.307 69.2782 398.286 68.5178 390.103 70.8043ZM494.077 70.8407C476.322 75.5126 462.932 88.523 457.687 106.195C455.614 113.19 455.572 128.903 457.609 136.721C462.161 154.2 475.369 167.096 494.63 172.877C502.546 175.252 518.249 175.242 527.077 172.851C545.822 167.783 560.958 152.773 564.994 135.263C566.525 128.612 566.296 114.518 564.546 107.804C559.864 89.8355 545.531 75.6584 527.067 70.747C519.989 68.8615 501.39 68.9188 494.077 70.8407ZM582.077 121.763V173.263H607.077V134.263H653.077V115.263H607.077V90.2626L631.327 90.1116C644.666 90.0282 656.255 89.9136 657.077 89.8616C658.281 89.7834 658.635 87.8303 658.864 80.0126L659.15 70.2626H582.077V121.763ZM664.744 70.9293C664.38 71.2938 664.077 75.7938 664.077 80.9293V90.2626H697.078V173.325L721.578 172.763L722.098 90.2626H753.078V70.2626H709.244C685.135 70.2626 665.109 70.5647 664.744 70.9293ZM758.583 72.4813C760.109 77.747 785.442 157.429 787.921 164.763L790.624 172.763H817.4L828.489 140.065C834.588 122.08 839.822 107.138 840.119 106.856C840.416 106.575 844.833 119.039 849.932 134.554C855.036 150.07 859.968 165.013 860.906 167.763L862.598 172.763L875.765 173.044L888.932 173.32L905.505 122.882C914.619 95.1428 922.078 71.9553 922.078 71.3563C922.078 70.6272 918.124 70.2626 910.213 70.2626H898.343L895.161 80.5126C893.406 86.148 888.265 102.237 883.734 116.263L875.499 141.763L865.708 111.763C860.328 95.2626 855.13 79.2886 854.166 76.2626L852.416 70.7626L829.52 70.2001L821.734 93.4813C810.723 126.398 805.489 140.752 804.885 139.684C804.432 138.877 799.963 124.549 786.828 81.7626L783.447 70.7626L770.687 70.4813L757.921 70.2001L758.583 72.4813ZM957.218 72.0126C956.708 72.9761 952.812 81.8616 948.562 91.7626C944.312 101.664 934.812 123.612 927.458 140.533C920.098 157.455 914.078 171.757 914.078 172.315C914.078 172.955 918.557 173.221 926.317 173.044L938.557 172.763L942.65 162.763L946.749 152.763H993.458L997.9 163.013L1002.34 173.263H1014.83C1026.24 173.263 1027.27 173.112 1026.82 171.513C1026.43 170.106 994.187 96.8824 984.557 75.5126L982.187 70.2626H970.166C959.739 70.2626 958.025 70.497 957.218 72.0126ZM1012.08 70.7313C1012.08 71.2001 1021.66 93.8615 1043.71 145.539L1055.56 173.32L1067.99 173.039L1080.43 172.763L1091.62 146.263C1097.78 131.69 1107.37 108.981 1112.95 95.8095C1118.52 82.6376 1123.08 71.4866 1123.08 71.0282C1123.08 70.5751 1117.58 70.3251 1110.86 70.4813L1098.65 70.7626L1094.28 81.2626C1085.18 103.148 1068.87 141.773 1068.63 142.023C1068.5 142.169 1061.5 126.08 1053.08 106.273L1037.78 70.2626H1024.93C1017.86 70.2626 1012.08 70.4761 1012.08 70.7313ZM1131.08 121.763V173.263H1211.08V153.263H1156.08V131.263H1202.08V112.299L1179.33 112.033L1156.58 111.763L1156.29 101.013L1156.01 90.2626H1208.08V70.2626H1131.08V121.763ZM130.827 93.3824L114.077 105.382V163.174L123.827 170.049C129.192 173.836 137.067 179.268 141.327 182.127L149.077 187.325V134.294C149.077 105.127 148.739 81.2886 148.327 81.3199C147.916 81.3511 140.041 86.7782 130.827 93.3824ZM167.077 134.263C167.077 163.414 167.442 187.263 167.885 187.263C169.432 187.263 244.109 135.398 244.036 134.367C244.015 134.033 238.952 130.309 232.786 126.086C226.619 121.867 209.687 110.054 195.156 99.8355C180.624 89.622 168.364 81.2626 167.906 81.2626C167.452 81.2626 167.077 105.112 167.077 134.263ZM280.312 99.8303C267.109 111.153 267.104 111.153 272.275 115.987L274.656 118.216L283.536 111.237C288.421 107.403 292.822 104.263 293.307 104.263C293.796 104.263 297.708 106.934 301.999 110.2L309.801 116.143L313.051 112.789C314.838 110.945 316.14 108.971 315.942 108.398C315.38 106.794 294.968 89.2574 293.702 89.2938C293.083 89.3095 287.057 94.0491 280.312 99.8303ZM504.406 90.2574C495.807 92.0595 488.494 97.648 484.265 105.674C481.817 110.304 481.577 111.752 481.583 121.763C481.588 131.252 481.906 133.403 483.906 137.434C489.411 148.523 497.916 153.726 510.577 153.747C517.343 153.763 519.463 153.33 524.307 150.95C534.088 146.148 539.874 136.961 540.796 124.778C541.676 113.195 537.463 102.289 529.786 96.247C523.192 91.0595 512.562 88.5543 504.406 90.2574ZM962.234 114.419C958.291 124.408 955.291 132.809 955.567 133.086C956.14 133.658 983.979 133.7 984.52 133.132C984.89 132.742 970.801 97.6532 969.916 96.773C969.635 96.4865 966.176 104.429 962.234 114.419ZM5.74411 101.929C4.35349 103.32 5.05661 110.039 6.66078 110.653C12.3118 112.825 16.6139 108.924 14.2597 103.763C13.3743 101.82 12.3743 101.263 9.76495 101.263C7.9212 101.263 6.1087 101.565 5.74411 101.929ZM251.077 149.679C248.604 151.481 230.984 164.054 211.926 177.617C192.869 191.184 176.27 203.096 175.046 204.086L172.817 205.888L176.697 208.924C181.973 213.049 205.713 229.263 206.479 229.263C207.093 229.263 225.671 215.987 246.327 200.789L257.077 192.877V169.57C257.077 156.752 256.739 146.294 256.327 146.336C255.916 146.377 253.551 147.877 251.077 149.679ZM14.6504 149.836C12.6868 151.799 12.6139 155.632 14.5149 157.211C15.3014 157.862 17.4368 158.257 19.2649 158.08C22.2077 157.799 22.6139 157.393 22.8952 154.45C23.0722 152.622 22.6764 150.487 22.0254 149.7C20.4472 147.799 16.6139 147.872 14.6504 149.836ZM30.666 180.341C27.0462 184.643 27.1712 189.507 30.9993 193.341C33.166 195.502 34.8743 196.263 37.5774 196.263C40.2806 196.263 41.9889 195.502 44.1556 193.341C47.9837 189.507 48.1087 184.643 44.4889 180.341C42.3327 177.778 41.1764 177.263 37.5774 177.263C33.9785 177.263 32.8222 177.778 30.666 180.341ZM63.2181 227.263C58.666 231.112 54.4785 234.263 53.9056 234.263C53.3379 234.263 49.7129 231.539 45.8483 228.205L38.8274 222.148L36.4524 224.377C35.1452 225.606 34.0774 226.961 34.0774 227.388C34.0774 229.58 52.692 245.492 54.7545 245.065C56.5879 244.684 75.7493 228.242 76.5358 226.372C77.2493 224.679 74.5202 220.263 72.7597 220.263C72.0618 220.263 67.7702 223.414 63.2181 227.263Z" stroke="white" stroke-width="10" mask="url(#path-1-outside-1_6_27)"/>
<defs>
<linearGradient id="paint0_linear_6_27" x1="538" y1="79" x2="541" y2="176" gradientUnits="userSpaceOnUse">
<stop stop-color="#2B266B"/>
<stop offset="1" stop-color="#CD0E75"/>
</linearGradient>
</defs>
</svg>
